<?xml version="1.0" encoding="UTF-8" standalone="no"?>
<!DOCTYPE svg PUBLIC "-//W3C//DTD SVG 1.1//EN" "http://www.w3.org/Graphics/SVG/1.1/DTD/svg11.dtd">
<svg version="1.1" xmlns:dc="http://purl.org/dc/elements/1.1/" xmlns:xl="http://www.w3.org/1999/xlink" xmlns="http://www.w3.org/2000/svg" viewBox="283.49493 96.25456 259.00507 197.50911" width="259.00507" height="197.50911">
  <defs/>
  <metadata> Produced by OmniGraffle 7.10.2 
    <dc:date>2019-07-04 04:00:21 +0000</dc:date>
  </metadata>
  <g id="Canvas_1" stroke-dasharray="none" stroke="none" stroke-opacity="1" fill-opacity="1" fill="none">
    <title>Canvas 1</title>
    <g id="Canvas_1: Layer 1">
      <title>Layer 1</title>
      <g id="Graphic_31">
        <path d="M 485.149 236.49142 C 472.6191 223.96145 452.3041 223.96145 439.7742 236.49142 C 427.24425 249.02132 427.24425 269.3363 439.7742 281.8662 C 452.3041 294.39616 472.6191 294.39616 485.149 281.8662 C 497.67896 269.3363 497.67896 249.02132 485.149 236.49142 M 386.55493 236.49142 C 374.02503 223.96145 353.71006 223.96145 341.18015 236.49142 C 328.6502 249.02132 328.6502 269.3363 341.18015 281.8662 C 353.71006 294.39616 374.02503 294.39616 386.55493 281.8662 C 399.0849 269.3363 399.0849 249.02132 386.55493 236.49142 M 485.149 108.15203 C 472.6191 95.62207 452.3041 95.62207 439.7742 108.15203 C 427.24425 120.68194 427.24425 140.9969 439.7742 153.5268 C 452.3041 166.05678 472.6191 166.05678 485.149 153.5268 C 497.67896 140.9969 497.67896 120.68194 485.149 108.15203 M 388.89445 108.15203 C 376.36455 95.62207 356.04958 95.62207 343.51967 108.15203 C 330.9897 120.68194 330.9897 140.9969 343.51967 153.5268 C 356.04958 166.05678 376.36455 166.05678 388.89445 153.5268 C 401.4244 140.9969 401.4244 120.68194 388.89445 108.15203 M 530.6025 172.32173 C 518.0726 159.79176 497.75765 159.79176 485.22775 172.32173 C 472.6978 184.85163 472.6978 205.1666 485.22775 217.6965 C 497.75765 230.22647 518.0726 230.22647 530.6025 217.6965 C 543.1325 205.1666 543.1325 184.85163 530.6025 172.32173 M 340.76718 172.32173 C 328.23728 159.79176 307.9223 159.79176 295.3924 172.32173 C 282.86244 184.85163 282.86244 205.1666 295.3924 217.6965 C 307.9223 230.22647 328.23728 230.22647 340.76718 217.6965 C 353.29715 205.1666 353.29715 184.85163 340.76718 172.32173 M 437.0217 172.32173 C 424.4918 159.79176 404.17685 159.79176 391.64694 172.32173 C 379.117 184.85163 379.117 205.1666 391.64694 217.6965 C 404.17685 230.22647 424.4918 230.22647 437.0217 217.6965 C 449.5517 205.1666 449.5517 184.85163 437.0217 172.32173" stroke="#a8c9ff" stroke-linecap="butt" stroke-linejoin="round" stroke-width="5"/>
      </g>
      <g id="Graphic_14">
        <path d="M 510.2543 194.38413 L 510.25466 194.38413 C 510.25466 194.38413 510.25473 194.37455 510.2546 194.3536 C 510.2546 194.35288 510.2546 194.35216 510.2546 194.35148 C 510.25466 194.34415 510.25466 194.34068 510.25466 194.34068 L 510.2545 194.34068 C 510.2528 194.13098 510.23376 193.11398 510.04076 190.2599 C 509.88033 187.907 508.9412 182.88037 508.3463 180.63778 C 506.3109 172.95078 502.40724 165.6615 498.7275 158.68305 C 493.99375 149.8331 488.66175 141.31642 482.76864 133.19231 C 476.2113 124.06818 466.9167 115.60246 454.80135 119.84368 C 448.86565 121.91916 444.2568 126.7085 440.74417 131.92228 C 439.06306 134.41554 437.45213 136.95225 435.9448 139.5558 C 430.8475 148.35562 426.27195 157.44754 422.2419 166.78448 C 419.70355 172.65498 417.1491 178.663 415.16987 184.81626 C 413.19065 178.663 410.6362 172.65498 408.09784 166.78448 C 404.0678 157.44754 399.49227 148.35562 394.39494 139.5558 C 392.8876 136.95225 391.2767 134.41554 389.5956 131.92228 C 386.08296 126.7085 381.4741 121.91916 375.5384 119.84368 C 363.42303 115.60246 354.12845 124.06818 347.5711 133.19231 C 341.678 141.31642 336.346 149.8331 331.61224 158.68305 C 327.9325 165.6615 324.02886 172.95078 321.99347 180.63778 C 321.39857 182.88037 320.4594 187.907 320.299 190.2599 C 320.106 193.11398 320.08698 194.13098 320.08524 194.34068 L 320.0851 194.34068 C 320.0851 194.34068 320.0851 194.34415 320.08514 194.35148 C 320.08515 194.35217 320.08515 194.35289 320.08515 194.3536 C 320.08502 194.37455 320.0851 194.38413 320.0851 194.38413 L 320.08548 194.38413 C 320.08818 194.59383 320.10975 195.61082 320.2823 198.46492 C 320.4427 200.8178 321.38186 205.84443 321.97676 208.08703 C 324.01215 215.76066 327.9158 223.05328 331.61224 230.03173 C 336.346 238.88168 341.678 247.39836 347.5711 255.52247 C 354.12845 264.6466 363.42303 273.11232 375.5384 268.8711 C 381.4741 266.79562 386.08296 262.0063 389.5956 256.7925 C 391.2767 254.29924 392.8876 251.76253 394.39494 249.15898 C 399.49227 240.35916 404.0678 231.26725 408.09784 221.9303 C 410.6362 216.04874 413.19065 210.0443 415.1699 203.89473 C 417.1491 210.0443 419.70355 216.04874 422.2419 221.9303 C 426.27195 231.26725 430.8475 240.35916 435.9448 249.15898 C 437.45213 251.76253 439.06306 254.29924 440.74417 256.7925 C 444.2568 262.0063 448.86565 266.79562 454.80135 268.8711 C 466.9167 273.11232 476.2113 264.6466 482.76864 255.52247 C 488.66175 247.39836 493.99375 238.88168 498.7275 230.03173 C 502.42395 223.05328 506.3276 215.76066 508.363 208.08703 C 508.9579 205.84443 509.89704 200.8178 510.05747 198.46492 C 510.23 195.61082 510.2516 194.59383 510.2543 194.38413 Z M 501.5642 194.3624 C 501.55855 194.50798 501.5256 195.3492 501.49817 195.78784 C 501.05366 202.98688 499.0517 209.62443 496.42475 215.92108 C 492.8085 224.5773 487.8053 232.7389 482.7753 240.65315 C 479.9512 245.0949 476.4486 249.3194 471.74616 251.65558 C 468.1132 253.457 463.9656 254.02184 459.91487 253.86476 C 456.0647 253.71436 452.16103 252.9022 448.869 250.89357 C 445.57695 248.88492 443.1238 245.83686 441.1018 242.58827 C 436.78036 235.64658 433.29447 228.1501 429.8587 220.7405 C 426.8307 214.2099 423.8428 207.62915 421.34955 200.87128 C 420.6169 198.87317 419.53585 196.54322 419.5281 194.3741 C 419.52807 194.3663 419.5281 194.3585 419.5281 194.3507 C 419.53585 192.18158 420.6169 189.85164 421.34955 187.85353 C 423.8428 181.09565 426.8307 174.51492 429.8587 167.98432 C 433.29447 160.57472 436.78036 153.07823 441.1018 146.13654 C 443.1238 142.88795 445.57695 139.83989 448.869 137.83124 C 452.16103 135.8226 456.0647 135.01045 459.91487 134.86005 C 463.9656 134.70297 468.1132 135.2678 471.74616 137.06923 C 476.4486 139.4054 479.9512 143.62991 482.7753 148.07166 C 487.8053 155.98592 492.8085 164.1475 496.42475 172.80373 C 499.0517 179.10038 501.05366 185.73793 501.49817 192.93697 C 501.5256 193.37562 501.55855 194.21684 501.5642 194.3624 Z M 410.84176 194.34068 C 410.84176 194.35182 410.84174 194.36296 410.8417 194.3741 C 410.83065 196.54038 409.7518 198.86622 409.0203 200.86126 C 406.527 207.61913 403.5391 214.19986 400.5111 220.73047 C 397.07536 228.14006 393.58947 235.63655 389.26805 242.57824 C 387.2293 245.82683 384.7628 248.88492 381.47076 250.89357 C 378.1787 252.9022 374.27506 253.71436 370.4249 253.86476 C 366.37417 254.02184 362.22654 253.457 358.5936 251.65558 C 353.89116 249.3194 350.38856 245.0949 347.56443 240.65315 C 342.53446 232.7389 337.53123 224.5773 333.915 215.92108 C 331.28805 209.62443 329.2861 202.98688 328.8416 195.78784 C 328.81417 195.3492 328.7812 194.50797 328.77558 194.3624 C 328.7812 194.21683 328.81417 193.37561 328.8416 192.93697 C 329.2861 185.73793 331.28805 179.10038 333.915 172.80373 C 337.53123 164.1475 342.53446 155.98592 347.56443 148.07166 C 350.38856 143.62991 353.89116 139.4054 358.5936 137.06923 C 362.22654 135.2678 366.37417 134.70297 370.4249 134.86005 C 374.27506 135.01045 378.1787 135.8226 381.47076 137.83124 C 384.7628 139.83989 387.2293 142.88795 389.26805 146.13654 C 393.58947 153.07823 397.07536 160.57472 400.5111 167.98432 C 403.5391 174.51492 406.527 181.09565 409.0203 187.85353 C 409.7518 189.84856 410.83065 192.1744 410.8417 194.34067 Z" fill="#99e8c1"/>
      </g>
    </g>
  </g>
</svg>
